<mxfile host="app.diagrams.net" agent="Mozilla/5.0 (Windows NT 10.0; Win64; x64) AppleWebKit/537.36 (KHTML, like Gecko) Chrome/138.0.0.0 Safari/537.36" version="28.0.6">
  <diagram name="第 1 页" id="flIO_Jp23XJizfp3M4bo">
    <mxGraphModel dx="1188" dy="626" grid="1" gridSize="10" guides="1" tooltips="1" connect="1" arrows="1" fold="1" page="1" pageScale="1" pageWidth="827" pageHeight="1169" math="0" shadow="0">
      <root>
        <mxCell id="0" />
        <mxCell id="1" parent="0" />
        <mxCell id="8OoQDPkSOGGRmZBBu19E-1" value="应用层" style="rounded=0;whiteSpace=wrap;html=1;" vertex="1" parent="1">
          <mxGeometry x="50" y="290" width="20" height="60" as="geometry" />
        </mxCell>
        <mxCell id="8OoQDPkSOGGRmZBBu19E-3" value="显示层" style="rounded=0;whiteSpace=wrap;html=1;" vertex="1" parent="1">
          <mxGeometry x="50" y="363" width="20" height="60" as="geometry" />
        </mxCell>
        <mxCell id="8OoQDPkSOGGRmZBBu19E-4" value="平台层" style="rounded=0;whiteSpace=wrap;html=1;" vertex="1" parent="1">
          <mxGeometry x="50" y="435" width="20" height="60" as="geometry" />
        </mxCell>
        <mxCell id="8OoQDPkSOGGRmZBBu19E-5" value="数据层" style="rounded=0;whiteSpace=wrap;html=1;" vertex="1" parent="1">
          <mxGeometry x="50" y="508" width="20" height="60" as="geometry" />
        </mxCell>
        <mxCell id="8OoQDPkSOGGRmZBBu19E-6" value="设备层" style="rounded=0;whiteSpace=wrap;html=1;" vertex="1" parent="1">
          <mxGeometry x="50" y="580" width="20" height="60" as="geometry" />
        </mxCell>
      </root>
    </mxGraphModel>
  </diagram>
</mxfile>
